# xmcd
#
# Track frame offsets:
#	150
#	12064
#	28165
#	44961
#	66455
#	86483
#	100345
#	115827
#	129279
#	141584
#	157015
#	178419
#	195865
#	211903
#	230415
#	248068
#	268460
#
# Disc length: 3801 seconds
# Revision: 4
# Processed by: cddbd v1.5.2PL0 Copyright (c) Steve Scherf et al.
# Submitted via: dBpowerAMP V12.0
#
DISCID=fe0ed711
DTITLE=Garth Brooks - The Ultimate Hits, Disc 2
DYEAR=2007
DGENRE=Country
TTITLE0=Callin’ Baton Rouge
TTITLE1=Two Piña Coladas
TTITLE2=The Thunder Rolls
TTITLE3=That Summer
TTITLE4=The River
TTITLE5=Beer Run
TTITLE6=Unanswered Prayers
TTITLE7=Much Too Young (to Feel This Damn Old)
TTITLE8=Workin’ for a Livin’
TTITLE9=What She’s Doing Now
TTITLE10=When You Come Back to Me Again
TTITLE11=Standing Outside the Fire
TTITLE12=American Honky‐Tonk Bar Association
TTITLE13=The Change
TTITLE14=Rodeo
TTITLE15=Wrapped Up in You
TTITLE16=Leave a Light On
EXTD=
EXTT0=
EXTT1=
EXTT2=
EXTT3=
EXTT4=
EXTT5=
EXTT6=
EXTT7=
EXTT8=
EXTT9=
EXTT10=
EXTT11=
EXTT12=
EXTT13=
EXTT14=
EXTT15=
EXTT16=
PLAYORDER=
